<svg xmlns="http://www.w3.org/2000/svg" version="1.1" xmlns:xlink="http://www.w3.org/1999/xlink" xmlns:svgjs="http://svgjs.dev/svgjs" width="2000" height="818" viewBox="0 0 2000 818"><g transform="matrix(1,0,0,1,-1.2121212121212466,-0.11255785669476381)"><svg viewBox="0 0 396 162" data-background-color="#ffffff" preserveAspectRatio="xMidYMid meet" height="818" width="2000" xmlns="http://www.w3.org/2000/svg" xmlns:xlink="http://www.w3.org/1999/xlink"><g id="tight-bounds" transform="matrix(1,0,0,1,0.2400000000000091,0.022291409272071405)"><svg viewBox="0 0 395.52 146.21019763809943" height="146.21019763809943" width="395.52"><g><svg viewBox="0 0 395.52 146.21019763809943" height="146.21019763809943" width="395.52"><g><svg viewBox="0 0 395.52 146.21019763809943" height="146.21019763809943" width="395.52"><g id="textblocktransform"><svg viewBox="0 0 395.52 146.21019763809943" height="146.21019763809943" width="395.52" id="textblock"><g><rect width="395.52" height="118.40054672497394" fill="none" stroke-width="8.962371322224001" stroke="#6575a8" data-fill-palette-color="none" data-stroke-palette-color="tertiary"></rect><rect width="395.52" height="43.554870456481886" y="118.40054672497394" fill="#6575a8" data-fill-palette-color="tertiary"></rect></g><g><svg viewBox="0 0 395.52 117.40054672497394" height="117.40054672497394" width="395.52"><g transform="matrix(1,0,0,1,23.461705032,23.46170503200001)"><svg width="348.596589936" viewBox="4.65 -32.1 160.98999999999998 32.550000000000004" height="70.47713666097393" data-palette-color="#6575a8"><path d="M17.7-12.95Q21-7.5 26-0.95L26-0.95 25.95-0.45Q24.15 0.25 22.25 0.45L22.25 0.45 21.7 0.1Q17.6-6.05 14.35-11.9L14.35-11.9 8.5-11.9 8.5-10 8.7 0 4.65 0 4.9-9.65 4.65-32.05 14.45-32.1Q19.15-32.1 21.73-29.73 24.3-27.35 24.3-22.95L24.3-22.95Q24.3-19.65 22.58-17.03 20.85-14.4 17.7-12.95L17.7-12.95ZM8.7-28.65L8.55-15.3 14.55-15.15Q20.15-16.75 20.15-22.6L20.15-22.6Q20.15-25.65 18.5-27.18 16.85-28.7 13.55-28.8L13.55-28.8 8.7-28.65ZM40.8-3L47.45-3.2 47.75-2.9 47.4 0 32.25 0 32.4-7.5 32.25-24.9 47.5-24.9 47.75-24.6 47.45-21.7 41.15-21.9 35.95-21.85 35.9-14.3 40.85-14.25 45.2-14.4 45.45-14.05 45.15-11.1 40.55-11.25 35.9-11.2 35.85-7.8 35.9-3.05 40.8-3ZM74.8-25L74.65-7.45 74.7 0 70.7 0 57.6-19 57.35-19 57.3-8.3 57.4 0 54 0 54.15-7.35 54.05-24.9 58-24.9 71.09-5.9 71.45-5.9 71.34-24.75 74.8-25ZM98.64-24.9L98.84-24.6 98.59-21.45 93.94-21.8 91.44-21.8 91.29-7.8 91.44 0 87.69 0 87.84-7.5 87.74-21.8 85.24-21.8 80.49-21.45 80.19-21.8 80.49-24.9 98.64-24.9ZM113.49-3L120.14-3.2 120.44-2.9 120.09 0 104.94 0 105.09-7.5 104.94-24.9 120.19-24.9 120.44-24.6 120.14-21.7 113.84-21.9 108.64-21.85 108.59-14.3 113.54-14.25 117.89-14.4 118.14-14.05 117.84-11.1 113.24-11.25 108.59-11.2 108.54-7.8 108.59-3.05 113.49-3ZM138.14-10.05Q141.19-5.4 144.89-0.9L144.89-0.9 144.84-0.4Q142.74 0.25 141.39 0.35L141.39 0.35 140.74-0.05Q136.94-5.8 134.99-9.1L134.99-9.1 130.29-9.05 130.29-7.8 130.39 0 126.69 0 126.84-7.5 126.69-24.9 135.19-24.95Q139.14-24.95 141.26-23.1 143.39-21.25 143.39-17.75L143.39-17.75Q143.39-15.2 142.01-13.2 140.64-11.2 138.14-10.05L138.14-10.05ZM130.39-21.9L130.34-12.15 135.04-12Q139.49-13.25 139.49-17.45L139.49-17.45Q139.49-19.65 138.19-20.75 136.89-21.85 134.24-21.95L134.24-21.95 130.39-21.9ZM158.84-25.15Q161.89-25.15 164.94-23.95L164.94-23.95 164.29-20.25 163.69-20.1Q162.29-21.2 161.04-21.73 159.79-22.25 158.44-22.25L158.44-22.25Q156.29-22.25 155.04-21.13 153.79-20 153.79-18.55L153.79-18.55Q153.79-17.1 155.01-16.2 156.24-15.3 158.79-14.2L158.79-14.2Q161.04-13.2 162.36-12.4 163.69-11.6 164.66-10.28 165.64-8.95 165.64-7.05L165.64-7.05Q165.64-5.1 164.59-3.43 163.54-1.75 161.51-0.73 159.49 0.3 156.69 0.3L156.69 0.3Q154.94 0.3 153.01-0.13 151.09-0.55 149.44-1.4L149.44-1.4 149.89-5.35 150.39-5.55Q151.79-4.15 153.66-3.38 155.54-2.6 157.14-2.6L157.14-2.6Q159.24-2.6 160.59-3.73 161.94-4.85 161.94-6.45L161.94-6.45Q161.94-7.95 160.71-8.85 159.49-9.75 156.89-10.95L156.89-10.95Q154.74-11.9 153.36-12.7 151.99-13.5 151.04-14.83 150.09-16.15 150.09-18.05L150.09-18.05Q150.09-20.05 151.16-21.65 152.24-23.25 154.21-24.2 156.19-25.15 158.84-25.15L158.84-25.15Z" opacity="1" transform="matrix(1,0,0,1,0,0)" fill="#6575a8" class="wordmark-text-0" data-fill-palette-color="primary" id="text-0"></path></svg></g></svg></g><g transform="matrix(1,0,0,1,75.54432,117.40054672497394)"><svg viewBox="0 0 244.43135999999998 28.809650913125488" height="28.809650913125488" width="244.43135999999998"><g transform="matrix(1,0,0,1,20,3.2)"><svg width="204.43135999999998" viewBox="3.85 -36.8 450.59999999999997 49.4" height="22.409650913125486" data-palette-color="#ffffff"><path d="M3.85 0L3.85-36.75 21.1-36.75 21.1-31.9 9.4-31.9 9.4-21.5 18.5-21.5 18.5-16.6 9.4-16.6 9.4 0 3.85 0ZM26.3 0L26.3-22.95 31.9-22.95 31.9 0 26.3 0ZM29.05-27.25Q27.5-27.25 26.45-28.3 25.4-29.35 25.4-30.9L25.4-30.9Q25.4-32.3 26.45-33.3 27.5-34.3 29.05-34.3L29.05-34.3Q30.55-34.3 31.6-33.3 32.65-32.3 32.65-30.9L32.65-30.9Q32.65-29.35 31.62-28.3 30.6-27.25 29.05-27.25L29.05-27.25ZM39.39 0L39.39-22.95 44.7-22.95 44.74-18.75Q45.7-20.85 47.74-22.2 49.8-23.55 52.55-23.55L52.55-23.55Q56.09-23.55 58-22.08 59.89-20.6 60.55-17.95 61.2-15.3 61.2-11.05L61.2-11.05 61.2 0 55.8 0 55.8-10.9Q55.8-15.25 54.95-17.18 54.09-19.1 51.45-19.1L51.45-19.1Q49.95-19.1 48.39-18.18 46.84-17.25 45.82-15.5 44.8-13.75 44.8-11.4L44.8-11.4 44.8 0 39.39 0ZM78.29 0.5Q75.19 0.5 72.57-0.98 69.94-2.45 68.37-5.18 66.79-7.9 66.79-11.55L66.79-11.55Q66.79-17 69.84-20.28 72.89-23.55 78.09-23.55L78.09-23.55Q80.99-23.55 83.39-22.13 85.79-20.7 86.64-18.7L86.64-18.7 86.39-22.6 86.39-36.75 91.69-36.75 91.69 0 86.54 0 86.44-4.05Q85.59-2.25 83.34-0.88 81.09 0.5 78.29 0.5L78.29 0.5ZM79.19-4.05Q82.04-4.05 83.99-6.03 85.94-8 85.94-11.2L85.94-11.2 85.94-11.55Q85.94-13.7 85.04-15.4 84.14-17.1 82.59-18.05 81.04-19 79.19-19L79.19-19Q75.99-19 74.24-16.93 72.49-14.85 72.49-11.55L72.49-11.55Q72.49-8.2 74.22-6.13 75.94-4.05 79.19-4.05L79.19-4.05ZM97.89 8.35Q99.89 4.05 100.94 0.4L100.94 0.4Q98.59-0.35 98.59-3.05L98.59-3.05Q98.59-4.6 99.62-5.63 100.64-6.65 102.19-6.65L102.19-6.65Q103.79-6.65 104.74-5.48 105.69-4.3 105.69-2.1L105.69-2.1Q105.69 0.15 104.32 3 102.94 5.85 101.14 8.35L101.14 8.35 97.89 8.35ZM138.19-36.8L138.74-36.8 156.44 0 149.99 0 146.84-7.2 129.99-7.2 126.84 0 120.59 0 138.19-36.8ZM138.44-26.15L136.24-21.15 132.24-12.25 144.64-12.25 140.69-21.1 138.54-26.15 138.44-26.15ZM159.28 12.15L159.28-22.95 164.48-22.95 164.48-18.7Q167.23-23.55 173.08-23.55L173.08-23.55Q177.93-23.55 180.93-20.48 183.93-17.4 183.93-11.6L183.93-11.6Q183.93-8 182.46-5.25 180.98-2.5 178.46-1 175.93 0.5 172.83 0.5L172.83 0.5Q169.93 0.5 167.81-0.53 165.68-1.55 164.48-3.45L164.48-3.45 164.53 12.15 159.28 12.15ZM171.58-4.05Q174.83-4.05 176.58-6.13 178.33-8.2 178.33-11.45L178.33-11.45Q178.33-14.85 176.61-16.88 174.88-18.9 171.58-18.9L171.58-18.9Q169.78-18.9 168.21-18.03 166.63-17.15 165.71-15.53 164.78-13.9 164.78-11.75L164.78-11.75 164.78-11.4Q164.78-9.25 165.71-7.58 166.63-5.9 168.18-4.98 169.73-4.05 171.58-4.05L171.58-4.05ZM189.78 12.15L189.78-22.95 194.98-22.95 194.98-18.7Q197.73-23.55 203.58-23.55L203.58-23.55Q208.43-23.55 211.43-20.48 214.43-17.4 214.43-11.6L214.43-11.6Q214.43-8 212.96-5.25 211.48-2.5 208.96-1 206.43 0.5 203.33 0.5L203.33 0.5Q200.43 0.5 198.31-0.53 196.18-1.55 194.98-3.45L194.98-3.45 195.03 12.15 189.78 12.15ZM202.08-4.05Q205.33-4.05 207.08-6.13 208.83-8.2 208.83-11.45L208.83-11.45Q208.83-14.85 207.11-16.88 205.38-18.9 202.08-18.9L202.08-18.9Q200.28-18.9 198.71-18.03 197.13-17.15 196.21-15.53 195.28-13.9 195.28-11.75L195.28-11.75 195.28-11.4Q195.28-9.25 196.21-7.58 197.13-5.9 198.68-4.98 200.23-4.05 202.08-4.05L202.08-4.05ZM220.63 0L220.63-36.75 225.98-36.75 225.98 0 220.63 0ZM235.23 12.6L240.18 0.7 230.68-22.95 236.78-22.95 241.68-8.35 242.78-4.8 243.88-8.35 249.03-22.95 254.93-22.95 240.83 12.6 235.23 12.6ZM254.47 8.35Q256.47 4.05 257.52 0.4L257.52 0.4Q255.17-0.35 255.17-3.05L255.17-3.05Q255.17-4.6 256.2-5.63 257.22-6.65 258.77-6.65L258.77-6.65Q260.37-6.65 261.32-5.48 262.27-4.3 262.27-2.1L262.27-2.1Q262.27 0.15 260.9 3 259.52 5.85 257.72 8.35L257.72 8.35 254.47 8.35ZM300.17 0L291.32-17.15 289.02-22.35 287.97-17.15 284.57 0 279.02 0 286.62-36.75 287.22-36.75 297.32-16.9 300.32-10.25 303.32-16.9 313.22-36.75 313.77-36.75 321.67 0 316.17 0 312.47-17.15 311.37-22.35 309.37-17.15 300.47 0 300.17 0ZM336.97 0.5Q333.42 0.5 330.67-1.1 327.92-2.7 326.42-5.45 324.92-8.2 324.92-11.55L324.92-11.55Q324.92-14.85 326.39-17.6 327.87-20.35 330.62-21.95 333.37-23.55 336.97-23.55L336.97-23.55Q340.57-23.55 343.29-21.95 346.02-20.35 347.49-17.6 348.97-14.85 348.97-11.55L348.97-11.55Q348.97-8.2 347.47-5.45 345.97-2.7 343.24-1.1 340.52 0.5 336.97 0.5L336.97 0.5ZM337.12-3.9Q340.02-3.9 341.69-6.05 343.37-8.2 343.37-11.45L343.37-11.45Q343.37-14.7 341.57-16.93 339.77-19.15 336.82-19.15L336.82-19.15Q333.97-19.15 332.24-16.95 330.52-14.75 330.52-11.45L330.52-11.45Q330.52-8.25 332.37-6.08 334.22-3.9 337.12-3.9L337.12-3.9ZM363.16 0L351.06-22.95 357.21-22.95 362.16-12.6 363.76-8.45 365.36-12.6 370.26-22.95 376.26-22.95 364.21 0 363.16 0ZM389.96 0.5Q385.86 0.5 383.11-1.13 380.36-2.75 379.06-5.48 377.76-8.2 377.76-11.45L377.76-11.45Q377.76-15.1 379.29-17.85 380.81-20.6 383.51-22.08 386.21-23.55 389.61-23.55L389.61-23.55Q394.91-23.55 397.49-20.63 400.06-17.7 400.06-12.4L400.06-12.4Q400.06-11.05 399.91-9.6L399.91-9.6 383.41-9.6Q383.96-6.55 385.58-5.2 387.21-3.85 390.11-3.85L390.11-3.85Q392.51-3.85 394.06-4.25 395.61-4.65 396.91-5.35L396.91-5.35 398.56-1.5Q397.31-0.7 395.16-0.1 393.01 0.5 389.96 0.5L389.96 0.5ZM383.41-13.35L394.81-13.35Q394.86-16.45 393.46-17.73 392.06-19 389.46-19L389.46-19Q384.21-19 383.41-13.35L383.41-13.35ZM418.96 0L418.96-36.75 424.56-36.75 424.56 0 418.96 0ZM432.65 0L432.65-22.95 437.95-22.95 438-18.75Q438.95-20.85 441-22.2 443.05-23.55 445.8-23.55L445.8-23.55Q449.35-23.55 451.25-22.08 453.15-20.6 453.8-17.95 454.45-15.3 454.45-11.05L454.45-11.05 454.45 0 449.05 0 449.05-10.9Q449.05-15.25 448.2-17.18 447.35-19.1 444.7-19.1L444.7-19.1Q443.2-19.1 441.65-18.18 440.1-17.25 439.08-15.5 438.05-13.75 438.05-11.4L438.05-11.4 438.05 0 432.65 0Z" opacity="1" transform="matrix(1,0,0,1,0,0)" fill="#ffffff" class="slogan-text-1" data-fill-palette-color="quaternary" id="text-1"></path></svg></g></svg></g></svg></g></svg></g></svg></g><defs></defs></svg><rect width="395.52" height="146.21019763809943" fill="none" stroke="none" visibility="hidden"></rect></g></svg></g></svg>